<svg width="512" height="512" viewBox="0 0 512 512" fill="none" xmlns="http://www.w3.org/2000/svg">
  <defs>
    <linearGradient id="base" x1="78" y1="54" x2="436" y2="456" gradientUnits="userSpaceOnUse">
      <stop stop-color="#111827"/>
      <stop offset="0.5" stop-color="#1E293B"/>
      <stop offset="1" stop-color="#0F766E"/>
    </linearGradient>
    <linearGradient id="mark" x1="150" y1="132" x2="356" y2="378" gradientUnits="userSpaceOnUse">
      <stop stop-color="#FFFFFF"/>
      <stop offset="0.55" stop-color="#DDE7FF"/>
      <stop offset="1" stop-color="#8EF5D2"/>
    </linearGradient>
    <filter id="softShadow" x="104" y="94" width="304" height="324" filterUnits="userSpaceOnUse" color-interpolation-filters="sRGB">
      <feFlood flood-opacity="0" result="BackgroundImageFix"/>
      <feColorMatrix in="SourceAlpha" type="matrix" values="0 0 0 0 0 0 0 0 0 0 0 0 0 0 0 0 0 0 127 0" result="hardAlpha"/>
      <feOffset dy="22"/>
      <feGaussianBlur stdDeviation="26"/>
      <feColorMatrix type="matrix" values="0 0 0 0 0 0 0 0 0 0.06 0 0 0 0 0.14 0 0 0 0.34 0"/>
      <feBlend mode="normal" in2="BackgroundImageFix" result="effect1_dropShadow"/>
      <feBlend mode="normal" in="SourceGraphic" in2="effect1_dropShadow" result="shape"/>
    </filter>
  </defs>

  <rect width="512" height="512" rx="120" fill="url(#base)"/>
  <path d="M388 74C417.823 74 442 98.1766 442 128V174C442 180.627 436.627 186 430 186H400C393.373 186 388 180.627 388 174V74Z" fill="#FFFFFF" fill-opacity="0.1"/>
  <path d="M70 350C70 343.373 75.3726 338 82 338H112C118.627 338 124 343.373 124 350V438C94.1766 438 70 413.823 70 384V350Z" fill="#2DD4BF" fill-opacity="0.16"/>

  <g filter="url(#softShadow)">
    <path d="M164 150C164 132.327 178.327 118 196 118H316C333.673 118 348 132.327 348 150V362C348 379.673 333.673 394 316 394H196C178.327 394 164 379.673 164 362V150Z" fill="#F8FAFC"/>
    <path d="M196 118H316C333.673 118 348 132.327 348 150V162H164V150C164 132.327 178.327 118 196 118Z" fill="#E2E8F0"/>
    <path d="M206 218H306" stroke="#CBD5E1" stroke-width="22" stroke-linecap="round"/>
    <path d="M206 268H282" stroke="#CBD5E1" stroke-width="22" stroke-linecap="round"/>
    <path d="M206 318H256" stroke="#CBD5E1" stroke-width="22" stroke-linecap="round"/>
  </g>

  <path d="M144 292L218 362L374 174" stroke="url(#mark)" stroke-width="42" stroke-linecap="round" stroke-linejoin="round"/>
  <circle cx="374" cy="174" r="18" fill="#8EF5D2"/>
</svg>
